<?xml version="1.0" encoding="iso-8859-1"?>
<!-- Generator: Adobe Illustrator 26.5.3, SVG Export Plug-In . SVG Version: 6.00 Build 0)  -->
<svg version="1.1" id="Capa_1" xmlns="http://www.w3.org/2000/svg" xmlns:xlink="http://www.w3.org/1999/xlink" x="0px" y="0px"
	 viewBox="0 0 510 510" style="enable-background:new 0 0 510 510;" xml:space="preserve">
<g>
	<g>
		<rect x="74" y="10" style="fill:#FD6050;" width="390" height="490"/>
		<path style="fill:#BC3C85;" d="M137.488,137.581c0-44.627,7.356-87.536,20.92-127.581H74v490h297.552
			C233.538,437.684,137.488,298.849,137.488,137.581z"/>
		<g>
			<g>
				<g>
					<g>
						<path style="fill:#FFFFFF;" d="M343.843,148.692c-5.141,0-10.101,0.773-14.77,2.21h-0.234
							c-9.272-15.652-26.328-26.149-45.839-26.149c-19.511,0-36.568,10.497-45.839,26.149h-0.234
							c-4.669-1.437-9.629-2.21-14.77-2.21c-27.701,0-50.157,22.456-50.157,50.157c0,27.701,22.456,50.157,50.157,50.157v79.698
							h121.687v-79.698c27.701,0,50.157-22.456,50.157-50.157C394,171.148,371.544,148.692,343.843,148.692z"/>
						<rect x="222.157" y="279.762" style="fill:#D2DCFD;" width="121.687" height="48.942"/>
					</g>
				</g>
			</g>
		</g>
	</g>
	<g>
		<path style="fill:#052A75;" d="M464,0H74c-5.522,0-10,4.477-10,10v73.5H46c-5.522,0-10,4.477-10,10s4.478,10,10,10h18v60.75H46
			c-5.522,0-10,4.477-10,10s4.478,10,10,10h18V245H46c-5.522,0-10,4.477-10,10s4.478,10,10,10h18v60.75H46c-5.522,0-10,4.477-10,10
			s4.478,10,10,10h18v60.75H46c-5.522,0-10,4.477-10,10s4.478,10,10,10h18V500c0,5.523,4.478,10,10,10h390c5.522,0,10-4.477,10-10
			V10C474,4.477,469.522,0,464,0z M454,490H84v-63.5h18c5.522,0,10-4.477,10-10s-4.478-10-10-10H84v-60.75h18
			c5.522,0,10-4.477,10-10s-4.478-10-10-10H84V265h18c5.522,0,10-4.477,10-10s-4.478-10-10-10H84v-60.75h18c5.522,0,10-4.477,10-10
			s-4.478-10-10-10H84V103.5h18c5.522,0,10-4.477,10-10s-4.478-10-10-10H84V20h370V490z"/>
		<path style="fill:#052A75;" d="M212.156,258.175v70.529c0,5.523,4.478,10,10,10h121.688c5.522,0,10-4.477,10-10v-70.529
			C382.272,253.399,404,228.614,404,198.849c0-33.17-26.986-60.157-60.156-60.157c-3.574,0-7.122,0.321-10.611,0.943
			c-11.567-15.111-29.777-24.882-50.233-24.882s-38.666,9.771-50.233,24.882c-3.489-0.622-7.037-0.943-10.611-0.943
			c-33.17,0-60.156,26.986-60.156,60.157C162,228.614,183.728,253.399,212.156,258.175z M222.156,158.692
			c0.207,0,0.411,0.02,0.617,0.023c-1.952,6.083-3.016,12.559-3.016,19.282c0,5.523,4.478,10,10,10s10-4.477,10-10
			c0-23.845,19.398-43.244,43.243-43.244s43.243,19.399,43.243,43.244c0,5.523,4.478,10,10,10s10-4.477,10-10
			c0-6.723-1.064-13.199-3.016-19.282c0.206-0.003,0.41-0.023,0.617-0.023c22.143,0,40.156,18.014,40.156,40.157
			s-18.014,40.157-40.156,40.157c-5.522,0-10,4.477-10,10v69.698H232.156v-69.698c0-5.523-4.478-10-10-10
			c-22.143,0-40.156-18.014-40.156-40.157S200.014,158.692,222.156,158.692z"/>
		<path style="fill:#052A75;" d="M359,375.247H207c-5.522,0-10,4.477-10,10s4.478,10,10,10h152c5.522,0,10-4.477,10-10
			S364.522,375.247,359,375.247z"/>
	</g>
</g>
<g>
</g>
<g>
</g>
<g>
</g>
<g>
</g>
<g>
</g>
<g>
</g>
<g>
</g>
<g>
</g>
<g>
</g>
<g>
</g>
<g>
</g>
<g>
</g>
<g>
</g>
<g>
</g>
<g>
</g>
</svg>
