<?xml version="1.0" encoding="iso-8859-1"?>
<!-- Generator: Adobe Illustrator 27.2.0, SVG Export Plug-In . SVG Version: 6.00 Build 0)  -->
<svg version="1.1" id="Capa_1" xmlns="http://www.w3.org/2000/svg" xmlns:xlink="http://www.w3.org/1999/xlink" x="0px" y="0px"
	 viewBox="0 0 510.001 510.001" style="enable-background:new 0 0 510.001 510.001;" xml:space="preserve">
<g>
	<g id="Bookmark_00000002371508813099837470000005156419187743538101_">
		<polygon style="fill:#FDCB50;" points="378.452,319.709 500,199.992 331.298,174.583 255,21.989 178.703,174.583 10,199.992 
			131.549,319.709 103.577,488.011 255,409.403 406.423,488.011 		"/>
		<g id="Bookmark_00000007402357642485415310000008909949776684852145_">
			<path style="fill:#FD8F01;" d="M406.42,488.01L255,409.401L103.58,488.01l27.97-168.3L10,199.99L149.36,179
				c-0.09,2.47-0.13,4.95-0.13,7.44c0,117.94,95.62,213.55,213.56,213.55c9.72,0,19.3-0.65,28.68-1.91L406.42,488.01z"/>
		</g>
	</g>
	<g id="Bookmark_00000061456267634286893900000012935319083935557293_">
		<g>
			<path style="fill:#1C2E72;" d="M406.422,498.011c-1.575,0-3.155-0.371-4.606-1.125L255,420.67l-146.815,76.216
				c-3.361,1.747-7.421,1.441-10.485-0.785c-3.064-2.227-4.608-5.993-3.987-9.729l27.121-163.181L2.983,207.117
				c-2.699-2.658-3.664-6.612-2.494-10.215c1.171-3.603,4.276-6.234,8.021-6.799l163.569-24.636l73.976-147.951
				c1.694-3.388,5.157-5.527,8.944-5.527c3.788,0,7.25,2.14,8.944,5.527l73.976,147.951l163.569,24.636
				c3.746,0.564,6.851,3.196,8.021,6.799c1.17,3.603,0.205,7.557-2.494,10.215l-117.85,116.073l27.121,163.181
				c0.621,3.736-0.922,7.503-3.987,9.729C410.559,497.366,408.496,498.011,406.422,498.011z M255,399.402
				c1.582,0,3.163,0.375,4.607,1.125l133.671,69.393l-24.692-148.571c-0.534-3.211,0.529-6.48,2.848-8.765l107.3-105.682
				l-148.926-22.431c-3.218-0.485-6-2.506-7.455-5.417L255,44.35l-67.353,134.705c-1.456,2.911-4.237,4.932-7.455,5.417
				L31.267,206.902l107.3,105.682c2.319,2.284,3.381,5.554,2.848,8.765L116.722,469.92l133.671-69.393
				C251.837,399.777,253.419,399.402,255,399.402z"/>
		</g>
	</g>
</g>
<g>
</g>
<g>
</g>
<g>
</g>
<g>
</g>
<g>
</g>
<g>
</g>
<g>
</g>
<g>
</g>
<g>
</g>
<g>
</g>
<g>
</g>
<g>
</g>
<g>
</g>
<g>
</g>
<g>
</g>
</svg>
