<svg xmlns="http://www.w3.org/2000/svg" version="1.1" xmlns:xlink="http://www.w3.org/1999/xlink" width="512" height="512" x="0" y="0" viewBox="0 0 512 512" style="enable-background:new 0 0 512 512" xml:space="preserve" class=""><g><path fill="#e6b95c" d="M51.246 247.272c14.87 0 31.033-.646 47.196-1.293l56.894-4.526c21.335-1.939 36.852-3.879 47.196-4.525 35.559-2.586 69.823-4.526 102.797-5.172h2.586c5.172 0 17.456 0 32.326-1.293h14.87c10.344-.646 22.628-1.293 32.973-1.293 21.335-.646 36.205-.646 43.316-.646h4.524c1.293 0 2.586 0 3.233.646 1.938.646 2.586 1.939 3.231 3.879.646 2.586 0 4.526-2.586 6.465l-1.939.646c-1.939.646-6.465.646-13.576 1.293l-54.954 3.879c-26.508 1.293-46.55 2.586-60.127 3.879-13.577.646-31.68 1.939-53.015 3.879-43.317 2.586-78.875 6.465-115.081 11.639l-24.568 3.231c14.224-.646 22.628-1.293 24.568-1.293l.646-.646h1.939c.646 0 1.293 0 2.586-.646 2.586 0 6.465 0 10.991-.646l49.782-2.586c10.991-.646 28.447-.646 51.075-1.293l51.075-1.939c44.609-1.939 102.149-2.586 171.975-2.586 7.758 0 7.758 11.638 0 11.638-71.764 0-128.658.646-171.975 2.586l-49.137 1.938c-21.98.646-38.145.646-48.488 1.293-.646 0-.646 0-1.293.646l-1.293 1.293H207.7c-1.293.646-12.284.646-32.972 1.293-9.698.646-17.456.646-21.982.646h-6.465c-3.232 0-11.637.646-25.861 1.939l-34.912 1.938c-16.163 1.293-28.447 1.94-36.852 1.94h-12.93c-1.939-.647-3.233-.647-3.879-.647-.646-.646-1.939-.646-2.586-.646l-3.232-2.586c-1.94-3.232-1.293-7.759 3.232-9.697 1.293-.646 2.586-.646 4.526-.646h4.525c10.991-1.939 20.688-3.232 29.093-5.172l54.955-8.405c-27.8 1.939-51.722 3.232-71.117 3.232-7.756.001-7.756-11.636.003-11.636z" opacity="1" data-original="#5c7ee6"></path></g></svg>