<svg xmlns="http://www.w3.org/2000/svg" version="1.1" xmlns:xlink="http://www.w3.org/1999/xlink" width="512" height="512" x="0" y="0" viewBox="0 0 512 512" style="enable-background:new 0 0 512 512" xml:space="preserve" class=""><g><g data-name="filled outline"><path fill="#cb8e11" d="M392 392h32v76a20 20 0 0 1-20 20h-12v-96z" opacity="1" data-original="#961b20" class=""></path><path fill="#feaa00" d="M88 24h316a20 20 0 0 1 20 20v360a20 20 0 0 1-20 20H88V24z" opacity="1" data-original="#e82f3e" class=""></path><path fill="#eaeae8" d="M376 192a64 64 0 0 0-60.635-63.911 64 64 0 0 0-118.767.094 64.18 64.18 0 0 0-4.6-.183 64.009 64.009 0 0 0-16 125.984V312H336v-60.67A64.007 64.007 0 0 0 376 192z" opacity="1" data-original="#eaeae8" class=""></path><path fill="#cb8e11" d="m88 424-48 32V56a32 32 0 0 1 32-32h16z" opacity="1" data-original="#961b20" class=""></path><g fill="#cbcbcb"><path d="M304.006 261.985a8.024 8.024 0 0 1-2-.254 71.61 71.61 0 0 1-33.491-19.4h-25.03a71.61 71.61 0 0 1-33.491 19.4 8 8 0 1 1-3.988-15.5 55.761 55.761 0 0 0 28-17.2 8 8 0 0 1 6-2.706h32a8 8 0 0 1 6 2.706 55.761 55.761 0 0 0 28 17.2 8 8 0 0 1-1.988 15.75zM216 320a8 8 0 0 1-8-8v-32a8 8 0 0 1 16 0v32a8 8 0 0 1-8 8zM296 320a8 8 0 0 1-8-8v-32a8 8 0 0 1 16 0v32a8 8 0 0 1-8 8zM256 320a8 8 0 0 1-8-8v-32a8 8 0 0 1 16 0v32a8 8 0 0 1-8 8z" fill="#cbcbcb" opacity="1" data-original="#cbcbcb"></path><path d="M176 312h160v32H176z" fill="#cbcbcb" opacity="1" data-original="#cbcbcb"></path></g><path fill="#eaeae8" d="M72 424h320v64H72a32 32 0 0 1-32-32 32 32 0 0 1 32-32z" opacity="1" data-original="#eaeae8" class=""></path><path fill="#02a437" d="M424 88h48l-16 24 16 24h-48z" opacity="1" data-original="#02a437"></path><path fill="#009cf7" d="M424 168h64l-16 24 16 24h-64z" opacity="1" data-original="#009cf7" class=""></path><path fill="#cb8e11" d="M224 392h-24a8 8 0 0 1 0-16h24a8 8 0 0 1 0 16zM320 392h-64a8 8 0 0 1 0-16h64a8 8 0 0 1 0 16z" opacity="1" data-original="#961b20" class=""></path><path fill="#fbb540" d="M424 136 312 24h92a20 20 0 0 1 20 20z" opacity="1" data-original="#fbb540" class=""></path><circle cx="368" cy="80" r="24" fill="#ea9d2d" opacity="1" data-original="#ea9d2d" class=""></circle><path fill="#cbcbcb" d="M120 464H72a8 8 0 0 1 0-16h48a8 8 0 0 1 0 16zM160 464h-8a8 8 0 0 1 0-16h8a8 8 0 0 1 0 16zM392 464H192a8 8 0 0 1 0-16h200z" opacity="1" data-original="#cbcbcb"></path><path d="M305.994 246.235a55.761 55.761 0 0 1-28-17.2 8 8 0 0 0-6-2.706H240a8 8 0 0 0-6 2.706 55.761 55.761 0 0 1-28 17.2 8 8 0 1 0 3.988 15.5 71.61 71.61 0 0 0 33.491-19.4h25.03a71.61 71.61 0 0 0 33.491 19.4 8 8 0 1 0 3.988-15.5z" fill="#000000" opacity="1" data-original="#000000" class=""></path><path d="M320.76 120.529A72 72 0 0 0 191.5 120 72.013 72.013 0 0 0 168 259.9V344a8 8 0 0 0 8 8h160a8 8 0 0 0 8-8v-87.5a72.007 72.007 0 0 0-23.24-135.973zM328 336H184v-16h144zm5-92.085a8 8 0 0 0-5 7.415V304h-24v-24a8 8 0 0 0-16 0v24h-24v-24a8 8 0 0 0-16 0v24h-24v-24a8 8 0 0 0-16 0v24h-24v-50.017a8 8 0 0 0-6.006-7.747A56.009 56.009 0 0 1 192 136c1.2 0 2.476.052 4.028.162a7.993 7.993 0 0 0 7.993-5 56 56 0 0 1 103.924-.081 8 8 0 0 0 7.006 5A56 56 0 0 1 333 243.915z" fill="#000000" opacity="1" data-original="#000000" class=""></path><path d="M495.054 164.226A8 8 0 0 0 488 160h-56v-16h40a8 8 0 0 0 6.656-12.438L465.615 112l13.041-19.562A8 8 0 0 0 472 80h-40V44a28.032 28.032 0 0 0-28-28H72a40.045 40.045 0 0 0-40 40v400a40.045 40.045 0 0 0 40 40h332a28.032 28.032 0 0 0 28-28V224h56a8 8 0 0 0 6.656-12.438L481.615 192l13.041-19.562a8 8 0 0 0 .398-8.212zM432 96h25.052l-7.708 11.562a8 8 0 0 0 0 8.876L457.052 128H432zM48 56a24.028 24.028 0 0 1 24-24h8v384h-8a39.788 39.788 0 0 0-24 8.022zm336 392H192a8 8 0 0 0 0 16h192v16H72a24 24 0 0 1 0-48h312zm32 20a12.013 12.013 0 0 1-12 12h-4v-48h4a27.838 27.838 0 0 0 12-2.707zm0-65.009V404a12.013 12.013 0 0 1-12 12H96V32h212.686l31.758 31.759a31.978 31.978 0 0 0 43.8 43.8L416 139.314zM352 80a16 16 0 1 1 16 16 16.019 16.019 0 0 1-16-16zm64 36.686-20.444-20.445a31.978 31.978 0 0 0-43.8-43.8L331.314 32H404a12.013 12.013 0 0 1 12 12zm49.344 79.752L473.052 208H432v-32h41.052l-7.708 11.562a8 8 0 0 0 0 8.876z" fill="#000000" opacity="1" data-original="#000000" class=""></path><path d="M224 376h-24a8 8 0 0 0 0 16h24a8 8 0 0 0 0-16zM320 376h-64a8 8 0 0 0 0 16h64a8 8 0 0 0 0-16zM64 456a8 8 0 0 0 8 8h48a8 8 0 0 0 0-16H72a8 8 0 0 0-8 8zM152 464h8a8 8 0 0 0 0-16h-8a8 8 0 0 0 0 16z" fill="#000000" opacity="1" data-original="#000000" class=""></path></g></g></svg>