<?xml version="1.0" encoding="UTF-8"?>
<svg xmlns="http://www.w3.org/2000/svg" xmlns:xlink="http://www.w3.org/1999/xlink" width="400" zoomAndPan="magnify" viewBox="0 0 300 74.999997" height="100" preserveAspectRatio="xMidYMid meet" version="1.0">
  <defs>
    <g></g>
  </defs>
  <g fill="#ffffff" fill-opacity="1">
    <g transform="translate(14.719627, 64.141719)">
      <g>
        <path d="M 6.625 -2.375 C 6.625 -2.070312 6.566406 -1.765625 6.453125 -1.453125 C 6.335938 -1.148438 6.15625 -0.878906 5.90625 -0.640625 C 5.65625 -0.398438 5.320312 -0.203125 4.90625 -0.046875 C 4.5 0.0976562 4.007812 0.171875 3.4375 0.171875 C 2.875 0.171875 2.347656 0.109375 1.859375 -0.015625 C 1.367188 -0.140625 0.945312 -0.289062 0.59375 -0.46875 C 0.582031 -0.65625 0.578125 -0.851562 0.578125 -1.0625 C 0.585938 -1.28125 0.597656 -1.488281 0.609375 -1.6875 C 0.628906 -1.894531 0.648438 -2.09375 0.671875 -2.28125 C 0.691406 -2.476562 0.71875 -2.65625 0.75 -2.8125 L 1.90625 -2.8125 L 2.109375 -1.421875 C 2.128906 -1.335938 2.15625 -1.257812 2.1875 -1.1875 C 2.21875 -1.125 2.269531 -1.066406 2.34375 -1.015625 C 2.445312 -0.921875 2.597656 -0.828125 2.796875 -0.734375 C 3.003906 -0.640625 3.234375 -0.59375 3.484375 -0.59375 C 3.835938 -0.59375 4.113281 -0.691406 4.3125 -0.890625 C 4.507812 -1.085938 4.609375 -1.347656 4.609375 -1.671875 C 4.609375 -1.890625 4.5625 -2.085938 4.46875 -2.265625 C 4.375 -2.441406 4.242188 -2.597656 4.078125 -2.734375 C 3.910156 -2.878906 3.71875 -3.015625 3.5 -3.140625 C 3.28125 -3.273438 3.050781 -3.40625 2.8125 -3.53125 C 2.53125 -3.675781 2.257812 -3.820312 2 -3.96875 C 1.738281 -4.125 1.507812 -4.296875 1.3125 -4.484375 C 1.113281 -4.679688 0.953125 -4.90625 0.828125 -5.15625 C 0.710938 -5.414062 0.65625 -5.722656 0.65625 -6.078125 C 0.65625 -6.421875 0.71875 -6.742188 0.84375 -7.046875 C 0.976562 -7.347656 1.171875 -7.609375 1.421875 -7.828125 C 1.671875 -8.046875 1.984375 -8.21875 2.359375 -8.34375 C 2.742188 -8.46875 3.191406 -8.53125 3.703125 -8.53125 C 4.128906 -8.53125 4.5625 -8.488281 5 -8.40625 C 5.4375 -8.332031 5.816406 -8.226562 6.140625 -8.09375 C 6.160156 -7.738281 6.160156 -7.367188 6.140625 -6.984375 C 6.117188 -6.597656 6.082031 -6.234375 6.03125 -5.890625 L 4.90625 -5.890625 L 4.671875 -7.09375 C 4.648438 -7.195312 4.625 -7.28125 4.59375 -7.34375 C 4.5625 -7.414062 4.515625 -7.476562 4.453125 -7.53125 C 4.347656 -7.601562 4.21875 -7.660156 4.0625 -7.703125 C 3.90625 -7.742188 3.753906 -7.765625 3.609375 -7.765625 C 3.285156 -7.765625 3.03125 -7.671875 2.84375 -7.484375 C 2.664062 -7.304688 2.578125 -7.070312 2.578125 -6.78125 C 2.578125 -6.582031 2.617188 -6.40625 2.703125 -6.25 C 2.785156 -6.09375 2.898438 -5.945312 3.046875 -5.8125 C 3.203125 -5.6875 3.390625 -5.5625 3.609375 -5.4375 C 3.835938 -5.320312 4.085938 -5.191406 4.359375 -5.046875 C 4.671875 -4.890625 4.960938 -4.722656 5.234375 -4.546875 C 5.503906 -4.378906 5.742188 -4.1875 5.953125 -3.96875 C 6.160156 -3.757812 6.320312 -3.523438 6.4375 -3.265625 C 6.5625 -3.003906 6.625 -2.707031 6.625 -2.375 Z M 6.625 -2.375 "></path>
      </g>
    </g>
  </g>
  <g fill="#ffffff" fill-opacity="1">
    <g transform="translate(21.806655, 64.141719)">
      <g>
        <path d="M 2.953125 -0.9375 C 3.117188 -0.9375 3.273438 -0.957031 3.421875 -1 C 3.566406 -1.050781 3.695312 -1.125 3.8125 -1.21875 L 3.8125 -2.53125 L 3.234375 -2.5 C 2.878906 -2.476562 2.640625 -2.378906 2.515625 -2.203125 C 2.390625 -2.035156 2.328125 -1.835938 2.328125 -1.609375 C 2.328125 -1.390625 2.375 -1.222656 2.46875 -1.109375 C 2.570312 -0.992188 2.734375 -0.9375 2.953125 -0.9375 Z M 5.234375 0.109375 C 4.921875 0.109375 4.65625 0.0546875 4.4375 -0.046875 C 4.21875 -0.160156 4.050781 -0.347656 3.9375 -0.609375 C 3.726562 -0.378906 3.46875 -0.195312 3.15625 -0.0625 C 2.851562 0.0625 2.515625 0.125 2.140625 0.125 C 1.585938 0.125 1.148438 -0.0078125 0.828125 -0.28125 C 0.503906 -0.5625 0.34375 -0.929688 0.34375 -1.390625 C 0.34375 -1.671875 0.40625 -1.921875 0.53125 -2.140625 C 0.664062 -2.359375 0.84375 -2.539062 1.0625 -2.6875 C 1.28125 -2.832031 1.535156 -2.945312 1.828125 -3.03125 C 2.117188 -3.113281 2.414062 -3.164062 2.71875 -3.1875 L 3.8125 -3.25 L 3.8125 -3.84375 C 3.8125 -4.28125 3.710938 -4.582031 3.515625 -4.75 C 3.316406 -4.914062 3.03125 -5 2.65625 -5 C 2.332031 -5 2.03125 -4.945312 1.75 -4.84375 C 1.46875 -4.738281 1.207031 -4.582031 0.96875 -4.375 L 0.53125 -4.75 C 0.707031 -5.207031 1.019531 -5.570312 1.46875 -5.84375 C 1.914062 -6.113281 2.503906 -6.25 3.234375 -6.25 C 4.097656 -6.25 4.722656 -6.046875 5.109375 -5.640625 C 5.503906 -5.242188 5.703125 -4.65625 5.703125 -3.875 L 5.703125 -1.21875 C 5.703125 -1.113281 5.722656 -1.035156 5.765625 -0.984375 C 5.804688 -0.929688 5.875 -0.898438 5.96875 -0.890625 L 6.5 -0.828125 L 6.5 -0.109375 C 6.351562 -0.0664062 6.15625 -0.0195312 5.90625 0.03125 C 5.664062 0.0820312 5.441406 0.109375 5.234375 0.109375 Z M 5.234375 0.109375 "></path>
      </g>
    </g>
  </g>
  <g fill="#ffffff" fill-opacity="1">
    <g transform="translate(28.309313, 64.141719)">
      <g>
        <path d="M 2.703125 0.078125 L 0.703125 -4.96875 C 0.679688 -5.03125 0.644531 -5.082031 0.59375 -5.125 C 0.550781 -5.164062 0.492188 -5.195312 0.421875 -5.21875 L 0.03125 -5.34375 L 0.03125 -6.109375 L 3.5625 -6.109375 L 3.5625 -5.328125 L 2.78125 -5.171875 L 4 -1.5 L 5.21875 -5.171875 L 4.453125 -5.328125 L 4.453125 -6.109375 L 6.875 -6.109375 L 6.875 -5.34375 L 6.46875 -5.21875 C 6.394531 -5.195312 6.332031 -5.164062 6.28125 -5.125 C 6.238281 -5.09375 6.203125 -5.039062 6.171875 -4.96875 L 4.375 0.078125 Z M 2.703125 0.078125 "></path>
      </g>
    </g>
  </g>
  <g fill="#ffffff" fill-opacity="1">
    <g transform="translate(35.273043, 64.141719)">
      <g>
        <path d="M 0.4375 -3 C 0.4375 -3.59375 0.515625 -4.097656 0.671875 -4.515625 C 0.835938 -4.929688 1.0625 -5.269531 1.34375 -5.53125 C 1.625 -5.789062 1.957031 -5.976562 2.34375 -6.09375 C 2.738281 -6.207031 3.160156 -6.265625 3.609375 -6.265625 C 4.546875 -6.265625 5.28125 -6.007812 5.8125 -5.5 C 6.34375 -4.988281 6.609375 -4.195312 6.609375 -3.125 C 6.609375 -2.519531 6.523438 -2.007812 6.359375 -1.59375 C 6.203125 -1.175781 5.984375 -0.835938 5.703125 -0.578125 C 5.421875 -0.328125 5.082031 -0.144531 4.6875 -0.03125 C 4.300781 0.0820312 3.882812 0.140625 3.4375 0.140625 C 2.5 0.140625 1.765625 -0.113281 1.234375 -0.625 C 0.703125 -1.132812 0.4375 -1.925781 0.4375 -3 Z M 4.53125 -2.984375 C 4.53125 -3.878906 4.457031 -4.515625 4.3125 -4.890625 C 4.164062 -5.265625 3.894531 -5.453125 3.5 -5.453125 C 3.175781 -5.453125 2.929688 -5.28125 2.765625 -4.9375 C 2.609375 -4.601562 2.53125 -4.003906 2.53125 -3.140625 C 2.53125 -2.242188 2.597656 -1.609375 2.734375 -1.234375 C 2.878906 -0.859375 3.148438 -0.671875 3.546875 -0.671875 C 3.867188 -0.671875 4.113281 -0.835938 4.28125 -1.171875 C 4.445312 -1.515625 4.53125 -2.117188 4.53125 -2.984375 Z M 4.53125 -2.984375 "></path>
      </g>
    </g>
  </g>
  <g fill="#ffffff" fill-opacity="1">
    <g transform="translate(42.322545, 64.141719)">
      <g>
        <path d="M 4.359375 -0.765625 L 4.359375 0 L 0.421875 0 L 0.421875 -0.765625 L 1.015625 -0.875 C 1.085938 -0.882812 1.144531 -0.914062 1.1875 -0.96875 C 1.238281 -1.019531 1.265625 -1.085938 1.265625 -1.171875 L 1.265625 -4.703125 C 1.265625 -4.785156 1.242188 -4.851562 1.203125 -4.90625 C 1.160156 -4.96875 1.101562 -5.003906 1.03125 -5.015625 L 0.375 -5.15625 L 0.375 -5.9375 C 0.71875 -6.039062 1.085938 -6.117188 1.484375 -6.171875 C 1.878906 -6.222656 2.242188 -6.25 2.578125 -6.25 L 2.890625 -6.015625 L 3.09375 -4.953125 C 3.332031 -5.359375 3.609375 -5.675781 3.921875 -5.90625 C 4.234375 -6.144531 4.5625 -6.265625 4.90625 -6.265625 C 5.03125 -6.265625 5.179688 -6.242188 5.359375 -6.203125 C 5.535156 -6.171875 5.671875 -6.132812 5.765625 -6.09375 C 5.785156 -5.9375 5.796875 -5.757812 5.796875 -5.5625 C 5.796875 -5.375 5.789062 -5.175781 5.78125 -4.96875 C 5.769531 -4.769531 5.75 -4.5625 5.71875 -4.34375 C 5.6875 -4.132812 5.648438 -3.929688 5.609375 -3.734375 L 4.75 -3.734375 L 4.5625 -4.359375 C 4.519531 -4.484375 4.46875 -4.566406 4.40625 -4.609375 C 4.34375 -4.648438 4.253906 -4.671875 4.140625 -4.671875 C 4.015625 -4.671875 3.863281 -4.644531 3.6875 -4.59375 C 3.519531 -4.539062 3.359375 -4.445312 3.203125 -4.3125 L 3.203125 -1.171875 C 3.203125 -1.085938 3.222656 -1.019531 3.265625 -0.96875 C 3.304688 -0.914062 3.367188 -0.882812 3.453125 -0.875 Z M 4.359375 -0.765625 "></path>
      </g>
    </g>
  </g>
  <g fill="#ffffff" fill-opacity="1">
    <g transform="translate(48.149739, 64.141719)">
      <g></g>
    </g>
  </g>
  <g fill="#ffffff" fill-opacity="1">
    <g transform="translate(50.921292, 64.141719)">
      <g>
        <path d="M 1.078125 -1.796875 L 1.078125 -5.078125 L 0.25 -5.234375 L 0.25 -5.9375 L 0.921875 -6.078125 C 1.015625 -6.097656 1.085938 -6.128906 1.140625 -6.171875 C 1.191406 -6.222656 1.234375 -6.289062 1.265625 -6.375 L 1.859375 -8.078125 L 2.921875 -8.078125 L 3 -6.109375 L 4.671875 -6.109375 L 4.671875 -5.109375 L 3.015625 -5.109375 L 3.015625 -2.234375 C 3.015625 -1.828125 3.078125 -1.546875 3.203125 -1.390625 C 3.328125 -1.234375 3.507812 -1.15625 3.75 -1.15625 C 3.882812 -1.15625 4.035156 -1.179688 4.203125 -1.234375 C 4.367188 -1.285156 4.519531 -1.375 4.65625 -1.5 L 5.03125 -1.078125 C 4.851562 -0.679688 4.570312 -0.382812 4.1875 -0.1875 C 3.800781 0 3.363281 0.09375 2.875 0.09375 C 2.320312 0.09375 1.882812 -0.0351562 1.5625 -0.296875 C 1.238281 -0.566406 1.078125 -1.066406 1.078125 -1.796875 Z M 1.078125 -1.796875 "></path>
      </g>
    </g>
  </g>
  <g fill="#ffffff" fill-opacity="1">
    <g transform="translate(56.008728, 64.141719)">
      <g>
        <path d="M 3.640625 -0.765625 L 3.640625 0 L 0.265625 0 L 0.265625 -0.765625 L 0.84375 -0.875 C 0.925781 -0.882812 0.988281 -0.914062 1.03125 -0.96875 C 1.070312 -1.019531 1.09375 -1.085938 1.09375 -1.171875 L 1.09375 -8.203125 C 1.09375 -8.285156 1.070312 -8.351562 1.03125 -8.40625 C 0.988281 -8.457031 0.929688 -8.488281 0.859375 -8.5 L 0.15625 -8.609375 L 0.15625 -9.359375 C 0.34375 -9.410156 0.550781 -9.453125 0.78125 -9.484375 C 1.007812 -9.523438 1.238281 -9.554688 1.46875 -9.578125 C 1.695312 -9.609375 1.921875 -9.628906 2.140625 -9.640625 C 2.367188 -9.648438 2.578125 -9.65625 2.765625 -9.65625 L 3.03125 -9.40625 L 3.03125 -5.515625 C 3.28125 -5.753906 3.566406 -5.929688 3.890625 -6.046875 C 4.210938 -6.171875 4.5625 -6.234375 4.9375 -6.234375 C 5.65625 -6.234375 6.144531 -6.03125 6.40625 -5.625 C 6.675781 -5.226562 6.8125 -4.660156 6.8125 -3.921875 L 6.8125 -1.171875 C 6.8125 -1.085938 6.832031 -1.019531 6.875 -0.96875 C 6.914062 -0.914062 6.976562 -0.882812 7.0625 -0.875 L 7.640625 -0.765625 L 7.640625 0 L 4.28125 0 L 4.28125 -0.765625 L 4.640625 -0.875 C 4.710938 -0.894531 4.769531 -0.925781 4.8125 -0.96875 C 4.851562 -1.019531 4.875 -1.085938 4.875 -1.171875 L 4.875 -3.71875 C 4.875 -4.21875 4.800781 -4.570312 4.65625 -4.78125 C 4.507812 -4.988281 4.273438 -5.09375 3.953125 -5.09375 C 3.804688 -5.09375 3.65625 -5.070312 3.5 -5.03125 C 3.34375 -4.988281 3.1875 -4.921875 3.03125 -4.828125 L 3.03125 -1.171875 C 3.03125 -1.085938 3.050781 -1.019531 3.09375 -0.96875 C 3.132812 -0.925781 3.191406 -0.894531 3.265625 -0.875 Z M 3.640625 -0.765625 "></path>
      </g>
    </g>
  </g>
  <g fill="#ffffff" fill-opacity="1">
    <g transform="translate(63.873085, 64.141719)">
      <g>
        <path d="M 3.34375 -5.46875 C 3.101562 -5.46875 2.90625 -5.363281 2.75 -5.15625 C 2.59375 -4.945312 2.492188 -4.570312 2.453125 -4.03125 L 4.15625 -4.03125 C 4.15625 -4.0625 4.15625 -4.097656 4.15625 -4.140625 C 4.15625 -4.179688 4.15625 -4.226562 4.15625 -4.28125 C 4.15625 -4.625 4.085938 -4.90625 3.953125 -5.125 C 3.828125 -5.351562 3.625 -5.46875 3.34375 -5.46875 Z M 5.875 -1.328125 C 5.726562 -0.847656 5.425781 -0.484375 4.96875 -0.234375 C 4.507812 0.015625 3.960938 0.140625 3.328125 0.140625 C 2.828125 0.140625 2.394531 0.0664062 2.03125 -0.078125 C 1.664062 -0.222656 1.363281 -0.429688 1.125 -0.703125 C 0.894531 -0.972656 0.722656 -1.300781 0.609375 -1.6875 C 0.492188 -2.082031 0.4375 -2.519531 0.4375 -3 C 0.4375 -4.0625 0.703125 -4.867188 1.234375 -5.421875 C 1.765625 -5.984375 2.507812 -6.265625 3.46875 -6.265625 C 3.894531 -6.265625 4.265625 -6.210938 4.578125 -6.109375 C 4.890625 -6.003906 5.144531 -5.859375 5.34375 -5.671875 C 5.539062 -5.484375 5.6875 -5.257812 5.78125 -5 C 5.875 -4.75 5.921875 -4.476562 5.921875 -4.1875 C 5.921875 -4.050781 5.910156 -3.898438 5.890625 -3.734375 C 5.878906 -3.578125 5.859375 -3.4375 5.828125 -3.3125 L 2.421875 -3.3125 C 2.429688 -2.53125 2.539062 -1.957031 2.75 -1.59375 C 2.96875 -1.226562 3.359375 -1.046875 3.921875 -1.046875 C 4.210938 -1.046875 4.492188 -1.09375 4.765625 -1.1875 C 5.046875 -1.289062 5.273438 -1.441406 5.453125 -1.640625 Z M 5.875 -1.328125 "></path>
      </g>
    </g>
  </g>
  <g fill="#ffffff" fill-opacity="1">
    <g transform="translate(70.220321, 64.141719)">
      <g></g>
    </g>
  </g>
  <g fill="#ffffff" fill-opacity="1">
    <g transform="translate(72.991874, 64.141719)">
      <g>
        <path d="M 7.296875 0.078125 L 6.234375 -0.703125 C 6.003906 -0.453125 5.695312 -0.242188 5.3125 -0.078125 C 4.925781 0.0859375 4.476562 0.171875 3.96875 0.171875 C 3.40625 0.171875 2.90625 0.078125 2.46875 -0.109375 C 2.039062 -0.304688 1.679688 -0.585938 1.390625 -0.953125 C 1.097656 -1.316406 0.878906 -1.765625 0.734375 -2.296875 C 0.585938 -2.828125 0.515625 -3.429688 0.515625 -4.109375 C 0.515625 -5.609375 0.882812 -6.71875 1.625 -7.4375 C 2.363281 -8.164062 3.410156 -8.53125 4.765625 -8.53125 C 5.253906 -8.53125 5.738281 -8.484375 6.21875 -8.390625 C 6.695312 -8.296875 7.117188 -8.179688 7.484375 -8.046875 C 7.503906 -7.691406 7.503906 -7.320312 7.484375 -6.9375 C 7.460938 -6.5625 7.425781 -6.1875 7.375 -5.8125 L 6.140625 -5.8125 L 5.84375 -7.046875 C 5.8125 -7.160156 5.773438 -7.242188 5.734375 -7.296875 C 5.703125 -7.359375 5.648438 -7.414062 5.578125 -7.46875 C 5.484375 -7.539062 5.363281 -7.601562 5.21875 -7.65625 C 5.070312 -7.707031 4.898438 -7.734375 4.703125 -7.734375 C 4.085938 -7.734375 3.628906 -7.441406 3.328125 -6.859375 C 3.023438 -6.273438 2.875 -5.34375 2.875 -4.0625 C 2.875 -3.03125 2.992188 -2.238281 3.234375 -1.6875 C 3.472656 -1.144531 3.929688 -0.875 4.609375 -0.875 C 4.835938 -0.875 5.046875 -0.898438 5.234375 -0.953125 C 5.421875 -1.015625 5.59375 -1.097656 5.75 -1.203125 L 5.75 -3.390625 L 4.71875 -3.515625 L 4.71875 -4.34375 L 8.21875 -4.34375 L 8.21875 -3.515625 L 7.671875 -3.421875 L 7.671875 -0.125 Z M 7.296875 0.078125 "></path>
      </g>
    </g>
  </g>
  <g fill="#ffffff" fill-opacity="1">
    <g transform="translate(81.542418, 64.141719)">
      <g>
        <path d="M 0.4375 -3 C 0.4375 -3.59375 0.515625 -4.097656 0.671875 -4.515625 C 0.835938 -4.929688 1.0625 -5.269531 1.34375 -5.53125 C 1.625 -5.789062 1.957031 -5.976562 2.34375 -6.09375 C 2.738281 -6.207031 3.160156 -6.265625 3.609375 -6.265625 C 4.546875 -6.265625 5.28125 -6.007812 5.8125 -5.5 C 6.34375 -4.988281 6.609375 -4.195312 6.609375 -3.125 C 6.609375 -2.519531 6.523438 -2.007812 6.359375 -1.59375 C 6.203125 -1.175781 5.984375 -0.835938 5.703125 -0.578125 C 5.421875 -0.328125 5.082031 -0.144531 4.6875 -0.03125 C 4.300781 0.0820312 3.882812 0.140625 3.4375 0.140625 C 2.5 0.140625 1.765625 -0.113281 1.234375 -0.625 C 0.703125 -1.132812 0.4375 -1.925781 0.4375 -3 Z M 4.53125 -2.984375 C 4.53125 -3.878906 4.457031 -4.515625 4.3125 -4.890625 C 4.164062 -5.265625 3.894531 -5.453125 3.5 -5.453125 C 3.175781 -5.453125 2.929688 -5.28125 2.765625 -4.9375 C 2.609375 -4.601562 2.53125 -4.003906 2.53125 -3.140625 C 2.53125 -2.242188 2.597656 -1.609375 2.734375 -1.234375 C 2.878906 -0.859375 3.148438 -0.671875 3.546875 -0.671875 C 3.867188 -0.671875 4.113281 -0.835938 4.28125 -1.171875 C 4.445312 -1.515625 4.53125 -2.117188 4.53125 -2.984375 Z M 4.53125 -2.984375 "></path>
      </g>
    </g>
  </g>
  <g fill="#ffffff" fill-opacity="1">
    <g transform="translate(88.59192, 64.141719)">
      <g>
        <path d="M 0.4375 -3 C 0.4375 -3.59375 0.515625 -4.097656 0.671875 -4.515625 C 0.835938 -4.929688 1.0625 -5.269531 1.34375 -5.53125 C 1.625 -5.789062 1.957031 -5.976562 2.34375 -6.09375 C 2.738281 -6.207031 3.160156 -6.265625 3.609375 -6.265625 C 4.546875 -6.265625 5.28125 -6.007812 5.8125 -5.5 C 6.34375 -4.988281 6.609375 -4.195312 6.609375 -3.125 C 6.609375 -2.519531 6.523438 -2.007812 6.359375 -1.59375 C 6.203125 -1.175781 5.984375 -0.835938 5.703125 -0.578125 C 5.421875 -0.328125 5.082031 -0.144531 4.6875 -0.03125 C 4.300781 0.0820312 3.882812 0.140625 3.4375 0.140625 C 2.5 0.140625 1.765625 -0.113281 1.234375 -0.625 C 0.703125 -1.132812 0.4375 -1.925781 0.4375 -3 Z M 4.53125 -2.984375 C 4.53125 -3.878906 4.457031 -4.515625 4.3125 -4.890625 C 4.164062 -5.265625 3.894531 -5.453125 3.5 -5.453125 C 3.175781 -5.453125 2.929688 -5.28125 2.765625 -4.9375 C 2.609375 -4.601562 2.53125 -4.003906 2.53125 -3.140625 C 2.53125 -2.242188 2.597656 -1.609375 2.734375 -1.234375 C 2.878906 -0.859375 3.148438 -0.671875 3.546875 -0.671875 C 3.867188 -0.671875 4.113281 -0.835938 4.28125 -1.171875 C 4.445312 -1.515625 4.53125 -2.117188 4.53125 -2.984375 Z M 4.53125 -2.984375 "></path>
      </g>
    </g>
  </g>
  <g fill="#ffffff" fill-opacity="1">
    <g transform="translate(95.641423, 64.141719)">
      <g>
        <path d="M 3.546875 -0.921875 C 3.679688 -0.921875 3.820312 -0.9375 3.96875 -0.96875 C 4.125 -1.007812 4.269531 -1.066406 4.40625 -1.140625 L 4.40625 -5.3125 C 4.3125 -5.351562 4.207031 -5.382812 4.09375 -5.40625 C 3.988281 -5.425781 3.878906 -5.4375 3.765625 -5.4375 C 3.566406 -5.4375 3.390625 -5.394531 3.234375 -5.3125 C 3.078125 -5.238281 2.941406 -5.113281 2.828125 -4.9375 C 2.722656 -4.757812 2.640625 -4.519531 2.578125 -4.21875 C 2.515625 -3.914062 2.484375 -3.539062 2.484375 -3.09375 C 2.484375 -2.320312 2.570312 -1.765625 2.75 -1.421875 C 2.9375 -1.085938 3.203125 -0.921875 3.546875 -0.921875 Z M 5.84375 0.109375 C 5.53125 0.109375 5.265625 0.0507812 5.046875 -0.0625 C 4.835938 -0.1875 4.675781 -0.367188 4.5625 -0.609375 C 4.351562 -0.390625 4.109375 -0.210938 3.828125 -0.078125 C 3.546875 0.0546875 3.222656 0.125 2.859375 0.125 C 2.515625 0.125 2.191406 0.0664062 1.890625 -0.046875 C 1.597656 -0.171875 1.34375 -0.351562 1.125 -0.59375 C 0.90625 -0.832031 0.734375 -1.140625 0.609375 -1.515625 C 0.492188 -1.898438 0.4375 -2.351562 0.4375 -2.875 C 0.4375 -3.96875 0.710938 -4.804688 1.265625 -5.390625 C 1.816406 -5.972656 2.601562 -6.265625 3.625 -6.265625 C 3.75 -6.265625 3.878906 -6.253906 4.015625 -6.234375 C 4.160156 -6.222656 4.289062 -6.207031 4.40625 -6.1875 L 4.40625 -8.140625 C 4.40625 -8.222656 4.382812 -8.289062 4.34375 -8.34375 C 4.300781 -8.394531 4.238281 -8.429688 4.15625 -8.453125 L 3.453125 -8.5625 L 3.453125 -9.3125 C 3.648438 -9.363281 3.859375 -9.410156 4.078125 -9.453125 C 4.304688 -9.492188 4.535156 -9.523438 4.765625 -9.546875 C 4.992188 -9.578125 5.222656 -9.601562 5.453125 -9.625 C 5.679688 -9.644531 5.890625 -9.65625 6.078125 -9.65625 L 6.34375 -9.40625 L 6.34375 -1.21875 C 6.34375 -1.101562 6.363281 -1.019531 6.40625 -0.96875 C 6.457031 -0.925781 6.523438 -0.898438 6.609375 -0.890625 L 7.140625 -0.828125 L 7.140625 -0.109375 C 7.015625 -0.0664062 6.820312 -0.0195312 6.5625 0.03125 C 6.3125 0.0820312 6.070312 0.109375 5.84375 0.109375 Z M 5.84375 0.109375 "></path>
      </g>
    </g>
  </g>
  <g fill="#ffffff" fill-opacity="1">
    <g transform="translate(103.060833, 64.141719)">
      <g></g>
    </g>
  </g>
  <g fill="#ffde59" fill-opacity="1">
    <g transform="translate(105.832901, 64.141719)">
      <g>
        <path d="M 5.8125 -1.375 L 6.34375 -3.09375 L 7.359375 -2.953125 C 7.359375 -2.503906 7.347656 -2.023438 7.328125 -1.515625 C 7.304688 -1.015625 7.242188 -0.507812 7.140625 0 L 0.484375 0 L 0.484375 -0.765625 L 1.3125 -0.921875 C 1.394531 -0.941406 1.457031 -0.976562 1.5 -1.03125 C 1.539062 -1.082031 1.5625 -1.148438 1.5625 -1.234375 L 1.5625 -7.109375 C 1.5625 -7.191406 1.539062 -7.257812 1.5 -7.3125 C 1.457031 -7.363281 1.394531 -7.394531 1.3125 -7.40625 L 0.484375 -7.5625 L 0.484375 -8.375 L 4.953125 -8.375 L 4.953125 -7.5625 L 3.84375 -7.390625 C 3.769531 -7.378906 3.707031 -7.347656 3.65625 -7.296875 C 3.613281 -7.242188 3.59375 -7.175781 3.59375 -7.09375 L 3.59375 -0.890625 L 4.53125 -0.890625 C 4.75 -0.890625 4.941406 -0.898438 5.109375 -0.921875 C 5.273438 -0.953125 5.40625 -0.984375 5.5 -1.015625 C 5.570312 -1.046875 5.632812 -1.085938 5.6875 -1.140625 C 5.738281 -1.203125 5.78125 -1.28125 5.8125 -1.375 Z M 5.8125 -1.375 "></path>
      </g>
    </g>
  </g>
  <g fill="#ffde59" fill-opacity="1">
    <g transform="translate(113.429214, 64.141719)">
      <g>
        <path d="M 3.203125 -6.015625 L 3.203125 -1.171875 C 3.203125 -1.085938 3.222656 -1.019531 3.265625 -0.96875 C 3.304688 -0.914062 3.367188 -0.882812 3.453125 -0.875 L 4.03125 -0.765625 L 4.03125 0 L 0.421875 0 L 0.421875 -0.765625 L 1.015625 -0.875 C 1.085938 -0.882812 1.144531 -0.914062 1.1875 -0.96875 C 1.238281 -1.019531 1.265625 -1.085938 1.265625 -1.171875 L 1.265625 -4.703125 C 1.265625 -4.785156 1.242188 -4.851562 1.203125 -4.90625 C 1.160156 -4.96875 1.101562 -5.003906 1.03125 -5.015625 L 0.375 -5.15625 L 0.375 -5.9375 C 0.5625 -5.988281 0.765625 -6.035156 0.984375 -6.078125 C 1.203125 -6.117188 1.421875 -6.148438 1.640625 -6.171875 C 1.867188 -6.203125 2.09375 -6.222656 2.3125 -6.234375 C 2.539062 -6.242188 2.75 -6.25 2.9375 -6.25 Z M 3.1875 -7.9375 C 3.1875 -7.644531 3.085938 -7.410156 2.890625 -7.234375 C 2.703125 -7.054688 2.453125 -6.96875 2.140625 -6.96875 C 1.816406 -6.96875 1.554688 -7.054688 1.359375 -7.234375 C 1.171875 -7.410156 1.078125 -7.644531 1.078125 -7.9375 C 1.078125 -8.226562 1.171875 -8.457031 1.359375 -8.625 C 1.554688 -8.800781 1.816406 -8.890625 2.140625 -8.890625 C 2.453125 -8.890625 2.703125 -8.800781 2.890625 -8.625 C 3.085938 -8.457031 3.1875 -8.226562 3.1875 -7.9375 Z M 3.1875 -7.9375 "></path>
      </g>
    </g>
  </g>
  <g fill="#ffde59" fill-opacity="1">
    <g transform="translate(117.723243, 64.141719)">
      <g>
        <path d="M 1.296875 -6.328125 C 1.296875 -6.710938 1.378906 -7.101562 1.546875 -7.5 C 1.710938 -7.894531 1.929688 -8.25 2.203125 -8.5625 C 2.472656 -8.875 2.78125 -9.128906 3.125 -9.328125 C 3.476562 -9.535156 3.832031 -9.640625 4.1875 -9.640625 C 4.476562 -9.640625 4.765625 -9.578125 5.046875 -9.453125 C 5.328125 -9.335938 5.582031 -9.195312 5.8125 -9.03125 L 5.421875 -7.984375 C 5.210938 -8.023438 4.992188 -8.0625 4.765625 -8.09375 C 4.546875 -8.125 4.375 -8.132812 4.25 -8.125 C 4.082031 -8.125 3.929688 -8.109375 3.796875 -8.078125 C 3.671875 -8.054688 3.5625 -8.003906 3.46875 -7.921875 C 3.375 -7.835938 3.300781 -7.71875 3.25 -7.5625 C 3.207031 -7.414062 3.1875 -7.222656 3.1875 -6.984375 L 3.1875 -6.09375 L 4.890625 -6.09375 L 4.890625 -5.0625 L 3.203125 -5.0625 L 3.203125 -1.171875 C 3.203125 -1.085938 3.222656 -1.019531 3.265625 -0.96875 C 3.304688 -0.925781 3.367188 -0.898438 3.453125 -0.890625 L 4.5625 -0.765625 L 4.5625 0 L 0.421875 0 L 0.421875 -0.765625 L 1 -0.875 C 1.082031 -0.882812 1.144531 -0.910156 1.1875 -0.953125 C 1.238281 -1.003906 1.265625 -1.070312 1.265625 -1.15625 L 1.265625 -5.03125 L 0.359375 -5.203125 L 0.359375 -5.9375 L 1.296875 -6.109375 Z M 1.296875 -6.328125 "></path>
      </g>
    </g>
  </g>
  <g fill="#ffde59" fill-opacity="1">
    <g transform="translate(122.773154, 64.141719)">
      <g>
        <path d="M 3.34375 -5.46875 C 3.101562 -5.46875 2.90625 -5.363281 2.75 -5.15625 C 2.59375 -4.945312 2.492188 -4.570312 2.453125 -4.03125 L 4.15625 -4.03125 C 4.15625 -4.0625 4.15625 -4.097656 4.15625 -4.140625 C 4.15625 -4.179688 4.15625 -4.226562 4.15625 -4.28125 C 4.15625 -4.625 4.085938 -4.90625 3.953125 -5.125 C 3.828125 -5.351562 3.625 -5.46875 3.34375 -5.46875 Z M 5.875 -1.328125 C 5.726562 -0.847656 5.425781 -0.484375 4.96875 -0.234375 C 4.507812 0.015625 3.960938 0.140625 3.328125 0.140625 C 2.828125 0.140625 2.394531 0.0664062 2.03125 -0.078125 C 1.664062 -0.222656 1.363281 -0.429688 1.125 -0.703125 C 0.894531 -0.972656 0.722656 -1.300781 0.609375 -1.6875 C 0.492188 -2.082031 0.4375 -2.519531 0.4375 -3 C 0.4375 -4.0625 0.703125 -4.867188 1.234375 -5.421875 C 1.765625 -5.984375 2.507812 -6.265625 3.46875 -6.265625 C 3.894531 -6.265625 4.265625 -6.210938 4.578125 -6.109375 C 4.890625 -6.003906 5.144531 -5.859375 5.34375 -5.671875 C 5.539062 -5.484375 5.6875 -5.257812 5.78125 -5 C 5.875 -4.75 5.921875 -4.476562 5.921875 -4.1875 C 5.921875 -4.050781 5.910156 -3.898438 5.890625 -3.734375 C 5.878906 -3.578125 5.859375 -3.4375 5.828125 -3.3125 L 2.421875 -3.3125 C 2.429688 -2.53125 2.539062 -1.957031 2.75 -1.59375 C 2.96875 -1.226562 3.359375 -1.046875 3.921875 -1.046875 C 4.210938 -1.046875 4.492188 -1.09375 4.765625 -1.1875 C 5.046875 -1.289062 5.273438 -1.441406 5.453125 -1.640625 Z M 5.875 -1.328125 "></path>
      </g>
    </g>
  </g>
  <g fill="#ffffff" fill-opacity="1">
    <g transform="translate(14.719627, 49.18954)">
      <g>
        <path d="M 19.78125 -11.984375 L 12.046875 -12.1875 L 12.046875 -4.015625 C 12.046875 -3.796875 12.117188 -3.597656 12.265625 -3.421875 C 12.421875 -3.253906 12.617188 -3.160156 12.859375 -3.140625 L 17.453125 -2.59375 L 17.453125 0 L 1.59375 0 L 1.59375 -2.59375 L 4.453125 -3.125 C 4.679688 -3.175781 4.863281 -3.285156 5 -3.453125 C 5.144531 -3.617188 5.21875 -3.816406 5.21875 -4.046875 L 5.21875 -23.78125 C 5.21875 -24.050781 5.148438 -24.273438 5.015625 -24.453125 C 4.878906 -24.628906 4.675781 -24.742188 4.40625 -24.796875 L 1.59375 -25.34375 L 1.59375 -28.046875 L 23.1875 -28.046875 C 23.34375 -26.796875 23.425781 -25.53125 23.4375 -24.25 C 23.445312 -22.976562 23.398438 -21.691406 23.296875 -20.390625 L 20.09375 -20.390625 L 19.125 -23.703125 C 19.039062 -24.015625 18.910156 -24.257812 18.734375 -24.4375 C 18.554688 -24.625 18.332031 -24.769531 18.0625 -24.875 C 17.769531 -24.988281 17.347656 -25.082031 16.796875 -25.15625 C 16.242188 -25.226562 15.675781 -25.265625 15.09375 -25.265625 L 12.046875 -25.265625 L 12.046875 -15.390625 L 19.78125 -15.671875 Z M 19.78125 -11.984375 "></path>
      </g>
    </g>
  </g>
  <g fill="#ffffff" fill-opacity="1">
    <g transform="translate(38.93197, 49.18954)">
      <g>
        <path d="M 14.625 -2.546875 L 14.625 0 L 1.4375 0 L 1.4375 -2.5625 L 3.375 -2.921875 C 3.632812 -2.972656 3.835938 -3.082031 3.984375 -3.25 C 4.140625 -3.425781 4.21875 -3.65625 4.21875 -3.9375 L 4.21875 -15.75 C 4.21875 -16.03125 4.148438 -16.265625 4.015625 -16.453125 C 3.890625 -16.640625 3.695312 -16.757812 3.4375 -16.8125 L 1.234375 -17.265625 L 1.234375 -19.90625 C 2.390625 -20.238281 3.628906 -20.488281 4.953125 -20.65625 C 6.285156 -20.832031 7.519531 -20.925781 8.65625 -20.9375 L 9.65625 -20.15625 L 10.34375 -16.578125 C 11.144531 -17.941406 12.070312 -19.015625 13.125 -19.796875 C 14.175781 -20.585938 15.28125 -20.984375 16.4375 -20.984375 C 16.84375 -20.984375 17.34375 -20.925781 17.9375 -20.8125 C 18.539062 -20.695312 18.992188 -20.5625 19.296875 -20.40625 C 19.359375 -19.882812 19.394531 -19.300781 19.40625 -18.65625 C 19.425781 -18.019531 19.410156 -17.359375 19.359375 -16.671875 C 19.316406 -15.984375 19.242188 -15.28125 19.140625 -14.5625 C 19.046875 -13.84375 18.921875 -13.148438 18.765625 -12.484375 L 15.9375 -12.484375 L 15.296875 -14.578125 C 15.160156 -15.023438 14.984375 -15.3125 14.765625 -15.4375 C 14.554688 -15.570312 14.25 -15.640625 13.84375 -15.640625 C 13.425781 -15.648438 12.9375 -15.5625 12.375 -15.375 C 11.8125 -15.195312 11.253906 -14.878906 10.703125 -14.421875 L 10.703125 -3.9375 C 10.703125 -3.644531 10.773438 -3.410156 10.921875 -3.234375 C 11.078125 -3.066406 11.296875 -2.960938 11.578125 -2.921875 Z M 14.625 -2.546875 "></path>
      </g>
    </g>
  </g>
  <g fill="#ffffff" fill-opacity="1">
    <g transform="translate(58.833508, 49.18954)">
      <g>
        <path d="M 11.1875 -18.296875 C 10.382812 -18.296875 9.722656 -17.945312 9.203125 -17.25 C 8.679688 -16.550781 8.347656 -15.300781 8.203125 -13.5 L 13.90625 -13.5 C 13.914062 -13.613281 13.921875 -13.738281 13.921875 -13.875 C 13.921875 -14.007812 13.921875 -14.160156 13.921875 -14.328125 C 13.921875 -15.484375 13.703125 -16.429688 13.265625 -17.171875 C 12.828125 -17.921875 12.132812 -18.296875 11.1875 -18.296875 Z M 19.671875 -4.46875 C 19.191406 -2.863281 18.179688 -1.640625 16.640625 -0.796875 C 15.109375 0.046875 13.273438 0.46875 11.140625 0.46875 C 9.484375 0.46875 8.046875 0.222656 6.828125 -0.265625 C 5.609375 -0.753906 4.601562 -1.453125 3.8125 -2.359375 C 3.019531 -3.273438 2.429688 -4.382812 2.046875 -5.6875 C 1.660156 -7 1.46875 -8.457031 1.46875 -10.0625 C 1.46875 -13.601562 2.351562 -16.300781 4.125 -18.15625 C 5.894531 -20.019531 8.398438 -20.953125 11.640625 -20.953125 C 13.066406 -20.953125 14.300781 -20.78125 15.34375 -20.4375 C 16.382812 -20.09375 17.234375 -19.609375 17.890625 -18.984375 C 18.546875 -18.367188 19.03125 -17.632812 19.34375 -16.78125 C 19.664062 -15.925781 19.828125 -15.003906 19.828125 -14.015625 C 19.828125 -13.554688 19.796875 -13.0625 19.734375 -12.53125 C 19.679688 -12 19.609375 -11.519531 19.515625 -11.09375 L 8.125 -11.09375 C 8.132812 -8.457031 8.5 -6.53125 9.21875 -5.3125 C 9.9375 -4.101562 11.234375 -3.5 13.109375 -3.5 C 14.085938 -3.5 15.039062 -3.664062 15.96875 -4 C 16.90625 -4.34375 17.671875 -4.847656 18.265625 -5.515625 Z M 19.671875 -4.46875 "></path>
      </g>
    </g>
  </g>
  <g fill="#ffffff" fill-opacity="1">
    <g transform="translate(80.100142, 49.18954)">
      <g>
        <path d="M 1.921875 -0.96875 C 1.796875 -1.925781 1.75 -2.921875 1.78125 -3.953125 C 1.8125 -4.984375 1.894531 -5.953125 2.03125 -6.859375 L 5.25 -6.859375 L 6.015625 -4.203125 C 6.128906 -3.828125 6.238281 -3.535156 6.34375 -3.328125 C 6.445312 -3.128906 6.613281 -2.945312 6.84375 -2.78125 C 7.101562 -2.601562 7.46875 -2.414062 7.9375 -2.21875 C 8.414062 -2.03125 8.957031 -1.9375 9.5625 -1.9375 C 10.46875 -1.9375 11.160156 -2.171875 11.640625 -2.640625 C 12.117188 -3.117188 12.359375 -3.664062 12.359375 -4.28125 C 12.359375 -4.769531 12.210938 -5.191406 11.921875 -5.546875 C 11.628906 -5.898438 11.238281 -6.226562 10.75 -6.53125 C 10.257812 -6.832031 9.675781 -7.132812 9 -7.4375 C 8.320312 -7.738281 7.601562 -8.070312 6.84375 -8.4375 C 5.351562 -9.164062 4.144531 -9.988281 3.21875 -10.90625 C 2.289062 -11.820312 1.828125 -13.066406 1.828125 -14.640625 C 1.828125 -16.484375 2.523438 -17.992188 3.921875 -19.171875 C 5.328125 -20.347656 7.5 -20.9375 10.4375 -20.9375 C 11.613281 -20.9375 12.851562 -20.828125 14.15625 -20.609375 C 15.457031 -20.390625 16.570312 -20.09375 17.5 -19.71875 C 17.582031 -18.851562 17.597656 -17.925781 17.546875 -16.9375 C 17.503906 -15.957031 17.394531 -15.015625 17.21875 -14.109375 L 14.21875 -14.140625 L 13.421875 -16.625 C 13.304688 -16.976562 13.1875 -17.242188 13.0625 -17.421875 C 12.9375 -17.609375 12.753906 -17.78125 12.515625 -17.9375 C 12.210938 -18.132812 11.882812 -18.273438 11.53125 -18.359375 C 11.1875 -18.441406 10.832031 -18.488281 10.46875 -18.5 C 9.6875 -18.5 9.050781 -18.300781 8.5625 -17.90625 C 8.082031 -17.507812 7.84375 -16.972656 7.84375 -16.296875 C 7.84375 -15.835938 7.960938 -15.4375 8.203125 -15.09375 C 8.441406 -14.75 8.757812 -14.441406 9.15625 -14.171875 C 9.550781 -13.910156 10.015625 -13.660156 10.546875 -13.421875 C 11.078125 -13.191406 11.628906 -12.953125 12.203125 -12.703125 C 13.066406 -12.328125 13.898438 -11.9375 14.703125 -11.53125 C 15.503906 -11.125 16.207031 -10.65625 16.8125 -10.125 C 17.414062 -9.601562 17.894531 -8.988281 18.25 -8.28125 C 18.613281 -7.582031 18.796875 -6.753906 18.796875 -5.796875 C 18.796875 -4.734375 18.566406 -3.800781 18.109375 -3 C 17.660156 -2.195312 17.035156 -1.53125 16.234375 -1 C 15.429688 -0.476562 14.472656 -0.0859375 13.359375 0.171875 C 12.253906 0.441406 11.0625 0.578125 9.78125 0.578125 C 8.25 0.578125 6.800781 0.414062 5.4375 0.09375 C 4.082031 -0.21875 2.910156 -0.570312 1.921875 -0.96875 Z M 1.921875 -0.96875 "></path>
      </g>
    </g>
  </g>
  <g fill="#ffffff" fill-opacity="1">
    <g transform="translate(100.199261, 49.18954)">
      <g>
        <path d="M 12.171875 -2.546875 L 12.171875 0 L 0.890625 0 L 0.890625 -2.5625 L 2.84375 -2.921875 C 3.101562 -2.972656 3.304688 -3.082031 3.453125 -3.25 C 3.609375 -3.425781 3.6875 -3.65625 3.6875 -3.9375 L 3.6875 -27.46875 C 3.6875 -27.738281 3.613281 -27.957031 3.46875 -28.125 C 3.320312 -28.300781 3.117188 -28.414062 2.859375 -28.46875 L 0.515625 -28.84375 L 0.515625 -31.359375 C 1.160156 -31.523438 1.859375 -31.671875 2.609375 -31.796875 C 3.367188 -31.921875 4.128906 -32.019531 4.890625 -32.09375 C 5.660156 -32.175781 6.421875 -32.234375 7.171875 -32.265625 C 7.929688 -32.304688 8.632812 -32.328125 9.28125 -32.328125 L 10.171875 -31.484375 L 10.171875 -18.484375 C 10.992188 -19.285156 11.941406 -19.882812 13.015625 -20.28125 C 14.097656 -20.675781 15.273438 -20.875 16.546875 -20.875 C 18.953125 -20.875 20.597656 -20.195312 21.484375 -18.84375 C 22.367188 -17.5 22.8125 -15.597656 22.8125 -13.140625 L 22.8125 -3.9375 C 22.8125 -3.65625 22.878906 -3.425781 23.015625 -3.25 C 23.160156 -3.082031 23.367188 -2.972656 23.640625 -2.921875 L 25.59375 -2.5625 L 25.59375 0 L 14.3125 0 L 14.3125 -2.546875 L 15.515625 -2.90625 C 15.773438 -3 15.972656 -3.125 16.109375 -3.28125 C 16.253906 -3.4375 16.328125 -3.65625 16.328125 -3.9375 L 16.328125 -12.421875 C 16.328125 -14.097656 16.082031 -15.285156 15.59375 -15.984375 C 15.101562 -16.691406 14.320312 -17.046875 13.25 -17.046875 C 12.757812 -17.046875 12.25 -16.972656 11.71875 -16.828125 C 11.1875 -16.679688 10.671875 -16.46875 10.171875 -16.1875 L 10.171875 -3.9375 C 10.171875 -3.65625 10.234375 -3.4375 10.359375 -3.28125 C 10.492188 -3.125 10.691406 -3 10.953125 -2.90625 Z M 12.171875 -2.546875 "></path>
      </g>
    </g>
  </g>
  <g fill="#ffffff" fill-opacity="1">
    <g transform="translate(126.54904, 49.18954)">
      <g></g>
    </g>
  </g>
  <g fill="#00bf63" fill-opacity="1">
    <g transform="translate(135.844617, 49.18954)">
      <g>
        <path d="M 13.09375 -2.59375 L 13.09375 0 L 1.59375 0 L 1.59375 -2.59375 L 4.40625 -3.09375 C 4.675781 -3.132812 4.878906 -3.242188 5.015625 -3.421875 C 5.148438 -3.597656 5.21875 -3.820312 5.21875 -4.09375 L 5.21875 -23.78125 C 5.21875 -24.050781 5.148438 -24.273438 5.015625 -24.453125 C 4.878906 -24.628906 4.675781 -24.742188 4.40625 -24.796875 L 1.59375 -25.34375 L 1.59375 -28.046875 L 12.234375 -28.046875 L 24 -8.921875 L 24 -23.78125 C 24 -24.050781 23.925781 -24.273438 23.78125 -24.453125 C 23.632812 -24.640625 23.429688 -24.753906 23.171875 -24.796875 L 20.1875 -25.34375 L 20.1875 -28.046875 L 31.203125 -28.046875 L 31.203125 -25.34375 L 28.59375 -24.796875 C 28.320312 -24.742188 28.113281 -24.628906 27.96875 -24.453125 C 27.832031 -24.273438 27.765625 -24.050781 27.765625 -23.78125 L 27.765625 0 L 21.609375 0 L 9 -20.6875 L 9 -4.109375 C 9 -3.835938 9.066406 -3.613281 9.203125 -3.4375 C 9.347656 -3.257812 9.554688 -3.148438 9.828125 -3.109375 Z M 13.09375 -2.59375 "></path>
      </g>
    </g>
  </g>
  <g fill="#ffffff" fill-opacity="1">
    <g transform="translate(168.305552, 49.18954)">
      <g></g>
    </g>
  </g>
  <g fill="#ffffff" fill-opacity="1">
    <g transform="translate(177.591745, 49.18954)">
      <g>
        <path d="M 24.40625 0.28125 L 20.890625 -2.328125 C 20.097656 -1.503906 19.0625 -0.8125 17.78125 -0.25 C 16.507812 0.300781 15.003906 0.578125 13.265625 0.578125 C 11.398438 0.578125 9.742188 0.25 8.296875 -0.40625 C 6.859375 -1.0625 5.648438 -2 4.671875 -3.21875 C 3.703125 -4.4375 2.960938 -5.929688 2.453125 -7.703125 C 1.953125 -9.484375 1.703125 -11.492188 1.703125 -13.734375 C 1.703125 -18.785156 2.945312 -22.523438 5.4375 -24.953125 C 7.925781 -27.378906 11.4375 -28.59375 15.96875 -28.59375 C 17.601562 -28.59375 19.222656 -28.429688 20.828125 -28.109375 C 22.429688 -27.796875 23.835938 -27.398438 25.046875 -26.921875 C 25.140625 -25.742188 25.148438 -24.523438 25.078125 -23.265625 C 25.003906 -22.003906 24.867188 -20.742188 24.671875 -19.484375 L 20.546875 -19.484375 L 19.5625 -23.59375 C 19.46875 -23.96875 19.351562 -24.25 19.21875 -24.4375 C 19.082031 -24.632812 18.898438 -24.820312 18.671875 -25 C 18.367188 -25.238281 17.96875 -25.441406 17.46875 -25.609375 C 16.976562 -25.785156 16.40625 -25.875 15.75 -25.875 C 13.707031 -25.875 12.171875 -24.898438 11.140625 -22.953125 C 10.117188 -21.015625 9.609375 -17.894531 9.609375 -13.59375 C 9.609375 -10.15625 10.015625 -7.515625 10.828125 -5.671875 C 11.640625 -3.835938 13.164062 -2.921875 15.40625 -2.921875 C 16.175781 -2.921875 16.878906 -3.019531 17.515625 -3.21875 C 18.160156 -3.414062 18.734375 -3.691406 19.234375 -4.046875 L 19.234375 -11.375 L 15.828125 -11.75 L 15.828125 -14.53125 L 27.5 -14.53125 L 27.5 -11.75 L 25.671875 -11.4375 L 25.671875 -0.4375 Z M 24.40625 0.28125 "></path>
      </g>
    </g>
  </g>
  <g fill="#ffffff" fill-opacity="1">
    <g transform="translate(206.240619, 49.18954)">
      <g>
        <path d="M 14.625 -2.546875 L 14.625 0 L 1.4375 0 L 1.4375 -2.5625 L 3.375 -2.921875 C 3.632812 -2.972656 3.835938 -3.082031 3.984375 -3.25 C 4.140625 -3.425781 4.21875 -3.65625 4.21875 -3.9375 L 4.21875 -15.75 C 4.21875 -16.03125 4.148438 -16.265625 4.015625 -16.453125 C 3.890625 -16.640625 3.695312 -16.757812 3.4375 -16.8125 L 1.234375 -17.265625 L 1.234375 -19.90625 C 2.390625 -20.238281 3.628906 -20.488281 4.953125 -20.65625 C 6.285156 -20.832031 7.519531 -20.925781 8.65625 -20.9375 L 9.65625 -20.15625 L 10.34375 -16.578125 C 11.144531 -17.941406 12.070312 -19.015625 13.125 -19.796875 C 14.175781 -20.585938 15.28125 -20.984375 16.4375 -20.984375 C 16.84375 -20.984375 17.34375 -20.925781 17.9375 -20.8125 C 18.539062 -20.695312 18.992188 -20.5625 19.296875 -20.40625 C 19.359375 -19.882812 19.394531 -19.300781 19.40625 -18.65625 C 19.425781 -18.019531 19.410156 -17.359375 19.359375 -16.671875 C 19.316406 -15.984375 19.242188 -15.28125 19.140625 -14.5625 C 19.046875 -13.84375 18.921875 -13.148438 18.765625 -12.484375 L 15.9375 -12.484375 L 15.296875 -14.578125 C 15.160156 -15.023438 14.984375 -15.3125 14.765625 -15.4375 C 14.554688 -15.570312 14.25 -15.640625 13.84375 -15.640625 C 13.425781 -15.648438 12.9375 -15.5625 12.375 -15.375 C 11.8125 -15.195312 11.253906 -14.878906 10.703125 -14.421875 L 10.703125 -3.9375 C 10.703125 -3.644531 10.773438 -3.410156 10.921875 -3.234375 C 11.078125 -3.066406 11.296875 -2.960938 11.578125 -2.921875 Z M 14.625 -2.546875 "></path>
      </g>
    </g>
  </g>
  <g fill="#ffffff" fill-opacity="1">
    <g transform="translate(226.483431, 49.18954)">
      <g>
        <path d="M 10.703125 -20.140625 L 10.703125 -3.9375 C 10.703125 -3.65625 10.773438 -3.425781 10.921875 -3.25 C 11.078125 -3.082031 11.285156 -2.972656 11.546875 -2.921875 L 13.484375 -2.5625 L 13.484375 0 L 1.4375 0 L 1.4375 -2.5625 L 3.375 -2.921875 C 3.632812 -2.972656 3.835938 -3.082031 3.984375 -3.25 C 4.140625 -3.425781 4.21875 -3.65625 4.21875 -3.9375 L 4.21875 -15.765625 C 4.21875 -16.035156 4.148438 -16.265625 4.015625 -16.453125 C 3.890625 -16.640625 3.695312 -16.757812 3.4375 -16.8125 L 1.234375 -17.265625 L 1.234375 -19.90625 C 1.878906 -20.070312 2.570312 -20.21875 3.3125 -20.34375 C 4.050781 -20.476562 4.789062 -20.585938 5.53125 -20.671875 C 6.28125 -20.753906 7.023438 -20.816406 7.765625 -20.859375 C 8.503906 -20.898438 9.195312 -20.921875 9.84375 -20.921875 Z M 10.671875 -26.578125 C 10.671875 -25.585938 10.351562 -24.796875 9.71875 -24.203125 C 9.082031 -23.609375 8.234375 -23.3125 7.171875 -23.3125 C 6.085938 -23.3125 5.222656 -23.609375 4.578125 -24.203125 C 3.941406 -24.796875 3.625 -25.585938 3.625 -26.578125 C 3.625 -27.546875 3.941406 -28.320312 4.578125 -28.90625 C 5.222656 -29.488281 6.085938 -29.78125 7.171875 -29.78125 C 8.234375 -29.78125 9.082031 -29.488281 9.71875 -28.90625 C 10.351562 -28.320312 10.671875 -27.546875 10.671875 -26.578125 Z M 10.671875 -26.578125 "></path>
      </g>
    </g>
  </g>
  <g fill="#ffffff" fill-opacity="1">
    <g transform="translate(240.870736, 49.18954)">
      <g>
        <path d="M 10.296875 -31.515625 L 10.296875 -3.9375 C 10.296875 -3.644531 10.363281 -3.414062 10.5 -3.25 C 10.644531 -3.082031 10.859375 -2.972656 11.140625 -2.921875 L 13.296875 -2.546875 L 13.296875 0 L 0.796875 0 L 0.796875 -2.5625 L 2.96875 -2.921875 C 3.226562 -2.972656 3.429688 -3.082031 3.578125 -3.25 C 3.734375 -3.414062 3.8125 -3.640625 3.8125 -3.921875 L 3.8125 -27.28125 C 3.8125 -27.550781 3.738281 -27.773438 3.59375 -27.953125 C 3.445312 -28.128906 3.242188 -28.238281 2.984375 -28.28125 L 0.625 -28.640625 L 0.625 -31.171875 C 1.269531 -31.347656 1.96875 -31.503906 2.71875 -31.640625 C 3.476562 -31.773438 4.242188 -31.894531 5.015625 -32 C 5.785156 -32.101562 6.550781 -32.179688 7.3125 -32.234375 C 8.070312 -32.296875 8.773438 -32.328125 9.421875 -32.328125 Z M 10.296875 -31.515625 "></path>
      </g>
    </g>
  </g>
  <g fill="#ffffff" fill-opacity="1">
    <g transform="translate(254.952689, 49.18954)">
      <g>
        <path d="M 10.296875 -31.515625 L 10.296875 -3.9375 C 10.296875 -3.644531 10.363281 -3.414062 10.5 -3.25 C 10.644531 -3.082031 10.859375 -2.972656 11.140625 -2.921875 L 13.296875 -2.546875 L 13.296875 0 L 0.796875 0 L 0.796875 -2.5625 L 2.96875 -2.921875 C 3.226562 -2.972656 3.429688 -3.082031 3.578125 -3.25 C 3.734375 -3.414062 3.8125 -3.640625 3.8125 -3.921875 L 3.8125 -27.28125 C 3.8125 -27.550781 3.738281 -27.773438 3.59375 -27.953125 C 3.445312 -28.128906 3.242188 -28.238281 2.984375 -28.28125 L 0.625 -28.640625 L 0.625 -31.171875 C 1.269531 -31.347656 1.96875 -31.503906 2.71875 -31.640625 C 3.476562 -31.773438 4.242188 -31.894531 5.015625 -32 C 5.785156 -32.101562 6.550781 -32.179688 7.3125 -32.234375 C 8.070312 -32.296875 8.773438 -32.328125 9.421875 -32.328125 Z M 10.296875 -31.515625 "></path>
      </g>
    </g>
  </g>
</svg>
